<svg width="40" height="40" xmlns="http://www.w3.org/2000/svg">
 <g>
  <title>Layer 1</title>
  <path fill="none" stroke="#000" id="svg_2" d="m312.49557,139.65799c-21.42908,0 -73.24466,-1.89137 -135.7175,0c-59.01106,1.78658 -108.23385,-0.45457 -107.1454,12.50029c1.35387,16.11394 82.14481,1.78575 183.93292,1.78575c173.2184,0 260.38832,-20.28146 275.00648,0c3.30188,4.5811 -41.12881,19.278 -123.21716,32.14363c-110.79526,17.36482 -219.4817,36.46063 -296.4356,66.07298c-40.27573,15.49835 -39.28607,21.20361 5.35727,21.42908c176.79668,0.89288 328.69595,6.11237 475.01125,0c100.16974,-4.18463 163.83154,-13.92352 162.50385,-16.07181c-14.84418,-24.0184 -117.85046,16.96466 -244.64865,17.85757c-148.21414,1.0437 -275.45488,2.23474 -360.72282,16.07181c-17.97607,2.91711 17.76782,-2.03085 116.07417,-5.35727c135.65161,-4.59009 278.578,-5.35727 383.93762,-5.35727c64.28729,0 82.13159,-0.3071 78.5733,0c-41.53448,3.58478 -126.78833,8.94135 -316.07889,14.28604c-126.78848,3.57993 -247.74103,-18.24332 -250.00592,12.50031c-0.4149,5.63177 73.21602,1.78574 203.57623,1.78574c166.07535,0 330.36496,-1.78574 466.08249,-1.78574c87.50208,0 115.02307,1.48721 108.93115,3.5715c-94.8587,32.45499 -219.92078,1.14474 -364.29437,10.71454c-132.62491,8.79105 -232.27213,18.05566 -283.93527,33.92938c-7.63394,2.34555 17.85223,3.85666 105.35962,5.35727c128.56796,2.20474 328.57919,0 430.36734,0c60.7157,0 67.85522,-0.27448 57.14423,0c-69.71313,1.78635 -189.28668,3.72507 -341.07953,7.14304c-166.07166,3.7395 -323.16515,23.6239 -437.51034,39.28662c-53.54679,7.33472 -39.86094,1.08682 37.50089,-7.14301c140.46291,-14.94257 317.86467,-7.14304 482.15428,-7.14304c132.14594,0 230.7876,-19.38968 233.93408,0c1.80908,11.14828 -73.216,7.14304 -192.86169,7.14304c-217.8623,0 -366.5556,-5.41821 -478.58276,7.14301c-55.72469,6.24823 -58.92996,8.9288 -30.35785,8.9288c101.78812,0 253.57742,0 417.867,0c141.07477,0 239.26831,-0.89276 291.07831,-1.78577c3.57098,-0.06155 -51.78693,0 -153.57501,0c-130.36023,0 -260.79074,-3.84689 -366.08011,0c-73.36282,2.68042 -102.75458,8.38135 -101.78813,10.71454c6.83383,16.49823 92.85933,0 212.50502,0c126.7887,0 281.87561,-12.49564 351.79407,-16.07181c17.83423,-0.91217 12.50024,-1.78577 -32.14362,-1.78577c-100.00238,0 -221.80121,-8.41629 -358.93707,1.78577c-118.62292,8.8248 -214.05066,33.03171 -258.93471,35.71512c-3.56516,0.21313 35.04622,-27.79312 107.1454,-60.7157c83.54297,-38.14813 146.29489,-78.12418 185.71866,-108.93115c14.95764,-11.68839 12.35144,-5.60907 -8.92877,7.14301c-23.38168,14.01135 -100.40298,50.28162 -208.93352,139.28903c-37.15327,30.46994 -35.72391,44.3783 14.28606,42.85815c111.18277,-3.37958 265.59433,-25.87579 408.93826,-58.92996c117.36273,-27.06308 178.72278,-47.12057 176.78986,-51.78696c-14.35107,-34.64621 -151.1803,-17.27011 -382.15189,7.14304c-158.8381,16.78879 -292.73953,33.823 -323.22192,73.216c-1.09285,1.41232 60.63597,-11.24088 176.78989,-28.57208c148.11914,-22.10071 289.00659,-44.60422 392.86646,-60.71573c51.65936,-8.01379 53.80359,-7.61438 -3.57153,1.78577c-101.43335,16.6185 -217.1066,33.05615 -321.43616,75.00177c-79.40839,31.92606 -110.67105,49.02371 -103.57388,48.21542c47.34387,-5.39191 147.85016,-30.66922 264.29196,-50.00119c108.62354,-18.03397 205.59674,-52.97198 221.43384,-25.00058c5.13031,9.0611 -61.83862,23.07651 -150.0036,51.78693c-92.41202,30.09344 -165.12048,67.83105 -198.21893,94.64508c-5.88696,4.76917 14.54245,12.42023 62.50146,7.14307c68.58655,-7.54688 148.98071,-40.11435 160.71808,-53.57272c12.08429,-13.85623 -7.14301,-19.64331 -55.35846,-19.64331c-58.92993,0 -109.55176,16.29086 -151.78928,33.92938c-23.59351,9.85275 -24.97385,11.15091 -21.42911,10.71451c7.30771,-0.8996 10.71457,-1.78577 10.71457,-3.57147l3.5715,0"/>
  <rect fill="none" stroke="#000" x="219.63623" y="121.80042" width="616.086" height="701.80231" id="svg_3"/>
  <rect fill="none" stroke="#000" x="985.72577" y="514.66686" width="1.78576" height="1.78576" id="svg_4"/>
  <path fill="none" stroke="#000" d="m398.00263,495.07525l0.14228,-0.44202l0.3725,-0.27318l0.46044,0l0.3725,0.27318l0.14228,0.44202l-0.14228,0.44202l-0.3725,0.27318l-0.46044,0l-0.3725,-0.27318l-0.14228,-0.44202z" id="svg_5"/>
  <path fill="#00bf00" stroke="#000" d="m326.92955,586.05862l48.08792,-133.54205l125.89511,-82.53451l155.61731,0l125.89588,82.53451l48.08713,133.54205l-48.08713,133.54205l-125.89588,82.53449l-155.61731,0l-125.89511,-82.53449l-48.08792,-133.54205z" id="svg_6"/>
  <path fill="#00bf00" stroke="#000" d="m987.90943,781.14452l0.14228,-0.44202l0.3725,-0.27318l0.46044,0l0.3725,0.27318l0.14228,0.44202l-0.14228,0.44202l-0.3725,0.27318l-0.46044,0l-0.3725,-0.27318l-0.14228,-0.44202z" id="svg_7"/>
  <path stroke="#000" id="svg_1" d="m30.49076,8.49343l-3.77701,-1.93645c-0.95295,-0.48809 -2.20863,-0.25317 -2.80909,0.52432l-1.48873,1.93283l7.22557,3.70185l1.48991,-1.93194c0.59818,-0.77841 0.31269,-1.80361 -0.64065,-2.29061l0,0zm-20.93276,17.21952l7.22597,3.70181l11.77713,-15.29304l-7.22941,-3.70278l-11.77369,15.294l0,0zm-1.10376,4.70329l-0.1596,3.47705l3.77121,-1.6271l3.50453,-1.50937l-6.97112,-3.57352l-0.14502,3.23293l0,0l0,0z" fill="#000000"/>
 </g>

</svg>