<svg width="40" height="40" viewBox="0 0 40 40" fill="none" xmlns="http://www.w3.org/2000/svg">
<path d="M25.9296 28H14.0704C13.4017 28 12.7772 27.6658 12.4063 27.1094L7.58133 19.872C7.05698 19.0855 7.8158 18.0778 8.71658 18.3644L17 21L19.0171 10.242C19.2211 9.15437 20.7789 9.15437 20.9829 10.242L23 21L31.2834 18.3644C32.1842 18.0778 32.943 19.0855 32.4187 19.872L27.5937 27.1094C27.2228 27.6658 26.5983 28 25.9296 28Z" fill="black"/>
<path d="M26 31H14C13.4477 31 13 30.5523 13 30C13 29.4477 13.4477 29 14 29H26C26.5523 29 27 29.4477 27 30C27 30.5523 26.5523 31 26 31Z" fill="black"/>
</svg>
