<svg width="40" height="40" viewBox="0 0 40 40" fill="none" xmlns="http://www.w3.org/2000/svg">
<path d="M29.6786 10.697C30.5022 10.3551 31.3276 11.1805 30.9856 12.0041L29.0553 16.6534C28.9957 16.7971 28.9033 16.9249 28.7856 17.0266L17.9776 26.3678C17.581 26.7106 16.9872 26.689 16.6165 26.3184L15.3643 25.0662C14.9937 24.6955 14.9721 24.1017 15.3149 23.7051L24.6561 12.897C24.7578 12.7793 24.8856 12.687 25.0292 12.6274L29.6786 10.697Z" fill="black"/>
<rect x="12.5289" y="23.6154" width="7.83257" height="1.95814" rx="0.979071" transform="rotate(45 12.5289 23.6154)" fill="black"/>
<rect x="13.9135" y="26.3846" width="1.95814" height="5.87443" rx="0.979071" transform="rotate(45 13.9135 26.3846)" fill="black"/>
<path d="M8.69708 12.004C8.35516 11.1805 9.18055 10.3551 10.0041 10.697L14.6535 12.6274C14.7971 12.687 14.9249 12.7793 15.0266 12.897L24.3679 23.7051C24.7106 24.1016 24.689 24.6955 24.3184 25.0661L23.0662 26.3183C22.6956 26.6889 22.1017 26.7105 21.7052 26.3678L10.8971 17.0266C10.7794 16.9249 10.687 16.7971 10.6274 16.6534L8.69708 12.004Z" fill="black"/>
<rect x="21.6154" y="29.1538" width="7.83257" height="1.95814" rx="0.979071" transform="rotate(-45 21.6154 29.1538)" fill="black"/>
<rect x="24.3846" y="27.7691" width="1.95814" height="5.87443" rx="0.979071" transform="rotate(-45 24.3846 27.7691)" fill="black"/>
</svg>
