<svg width="40" height="40" viewBox="0 0 40 40" fill="none" xmlns="http://www.w3.org/2000/svg">
<path d="M5.89723 25.6426C5.5154 24.9813 5.72032 24.1366 6.36276 23.7238L16.0593 17.4924L20.3512 24.9262L10.1064 30.208C9.42766 30.5579 8.59371 30.3131 8.21188 29.6517L5.89723 25.6426Z" fill="black"/>
<path d="M16.9058 16.0972C16.5246 15.437 16.7281 14.5938 17.3684 14.1802L26.994 7.96203C27.6813 7.51807 28.6002 7.73985 29.0093 8.44842L34.6585 18.2332C35.0676 18.9417 34.8002 19.8484 34.0721 20.2216L23.8742 25.4486C23.1958 25.7963 22.3639 25.551 21.9827 24.8908L16.9058 16.0972Z" fill="black"/>
<path d="M35.5765 16.9619C36.945 16.1717 36.9335 13.5898 35.5508 11.1948C34.1681 8.79992 31.9378 7.49897 30.5692 8.28909L35.5765 16.9619Z" fill="black"/>
<path d="M4.21895 28.4583C3.82389 27.774 4.05834 26.8991 4.7426 26.504L5.98157 25.7887L8.12752 29.5056L6.88855 30.2209C6.20429 30.616 5.32933 30.3815 4.93427 29.6973L4.21895 28.4583Z" fill="black"/>
</svg>
