<svg width="40" height="40" viewBox="0 0 40 40" fill="none" xmlns="http://www.w3.org/2000/svg">
<rect x="17" y="20" width="6" height="6" rx="1" fill="black"/>
<path fill-rule="evenodd" clip-rule="evenodd" d="M13.8284 8C13.298 8 12.7893 8.21071 12.4142 8.58579L7.58579 13.4142C7.21071 13.7893 7 14.298 7 14.8284V21C7 21.5523 7.44772 22 8 22H15V19C15 18.4477 15.4477 18 16 18H24C24.5523 18 25 18.4477 25 19V22H32C32.5523 22 33 21.5523 33 21V14.8284C33 14.298 32.7893 13.7893 32.4142 13.4142L27.5858 8.58579C27.2107 8.21071 26.702 8 26.1716 8H13.8284Z" fill="black"/>
<path fill-rule="evenodd" clip-rule="evenodd" d="M15 24H8V31C8 31.5523 8.44772 32 9 32H31C31.5523 32 32 31.5523 32 31V24H25V27C25 27.5523 24.5523 28 24 28H16C15.4477 28 15 27.5523 15 27V24Z" fill="black"/>
</svg>
