<svg width="39" height="50" viewBox="0 0 39 50" fill="none" xmlns="http://www.w3.org/2000/svg">
    <mask id="mask0" mask-type="alpha" maskUnits="userSpaceOnUse" x="0" y="2" width="24" height="48">
        <path d="M23.8261 46.3308L19.4163 3.99662C19.2452 2.35407 17.2697 1.61491 16.0624 2.74172L4.48454 13.5478C4.16993 13.8414 3.95842 14.2287 3.88144 14.6521L0.210039 34.8448C0.0803609 35.558 0.346775 36.2856 0.906364 36.7464L16.1891 49.3322C16.6968 49.7503 17.3776 49.8921 18.01 49.7114L22.3863 48.461C23.3196 48.1944 23.9267 47.2962 23.8261 46.3308Z"
              fill="#C4C4C4"/>
    </mask>
    <g mask="url(#mask0)">
        <path d="M14 12L19 0L0 15L14 12Z" fill="#5BBAD8"/>
        <path d="M-2 34L18 45L14 12L0 15L-2 34Z" fill="#2092C3"/>
        <path d="M18 45L16 52L-2 34L18 45Z" fill="#185D83"/>
        <path d="M19 0L14 12L18 45L26 49L19 0Z" fill="#5BBAD8"/>
        <path d="M26 49L16 52L18 45L26 49Z" fill="#2092C3"/>
    </g>
    <mask id="mask1" mask-type="alpha" maskUnits="userSpaceOnUse" x="24" y="17" width="15" height="26">
        <path d="M27.0566 41.5849L26.284 40.426C26.0977 40.1465 25.9847 39.8246 25.9556 39.4899L24.189 19.1733C24.0874 18.0047 25.0085 17 26.1815 17H27.1153C27.6788 17 28.2161 17.2377 28.5951 17.6547L37.5555 27.5111C37.8442 27.8286 38.023 28.2305 38.0657 28.6574L38.8573 36.5735C38.9426 37.4263 38.4751 38.2386 37.6949 38.5932L29.5483 42.2962C28.6557 42.702 27.6005 42.4007 27.0566 41.5849Z"
              fill="#C4C4C4"/>
    </mask>
    <g mask="url(#mask1)">
        <path d="M32 27L23 16L25 41L33 34L32 27Z" fill="#2092C3"/>
        <path d="M40 28L32 27L23 16L28 14L40 28Z" fill="#5BBAD8"/>
        <path d="M40 28V39L33 34L32 27L40 28Z" fill="#5BBAD8"/>
        <path d="M27 45L25 41L33 34L40 39L27 45Z" fill="#185D83"/>
    </g>
</svg>
