<svg width="28" height="33" viewBox="0 0 28 33" fill="none" xmlns="http://www.w3.org/2000/svg">
    <path fill-rule="evenodd" clip-rule="evenodd"
          d="M18.196 24.1114C16.5067 24.9574 14.5999 25.4335 12.582 25.4335C5.64824 25.4335 0.0273438 19.8126 0.0273438 12.8788C0.0273438 5.94512 5.64824 0.324219 12.582 0.324219C19.5157 0.324219 25.1366 5.94512 25.1366 12.8788C25.1366 16.4951 23.6076 19.7543 21.1609 22.0452L27.5072 29.1307C28.168 29.8685 28.1056 31.0024 27.3678 31.6633C26.6299 32.3241 25.4961 32.2617 24.8352 31.5239L18.196 24.1114ZM21.5489 12.8786C21.5489 17.8312 17.5339 21.8462 12.5813 21.8462C7.6286 21.8462 3.61368 17.8312 3.61368 12.8786C3.61368 7.9259 7.6286 3.91097 12.5813 3.91097C17.5339 3.91097 21.5489 7.9259 21.5489 12.8786Z"
          fill="#959595"/>
</svg>
