<svg width="328" height="366" viewBox="0 0 328 366" fill="none" xmlns="http://www.w3.org/2000/svg">
    <g opacity="0.5">
        <mask id="mask0" mask-type="alpha" maskUnits="userSpaceOnUse" x="0" y="7" width="241" height="325">
            <path d="M140.174 315.71L211.981 54.3057C213.429 49.0341 208.226 44.3783 203.147 46.4012L103.019 86.2833C101.696 86.8105 100.578 87.7505 99.8311 88.9637L32.6007 198.194C31.3429 200.238 31.2894 202.802 32.4609 204.897L93.4572 313.945C94.52 315.845 96.4491 317.101 98.6167 317.305L133.171 320.548C136.37 320.848 139.323 318.808 140.174 315.71Z"
                  fill="#C4C4C4"/>
        </mask>
        <g mask="url(#mask0)">
            <path d="M161.321 97.7316L215.505 41.479L76.4087 83.9601L161.321 97.7316Z" fill="#5BBAD8"/>
            <path d="M23.7353 185.944L111.668 291.176L161.321 97.7318L76.409 83.9604L23.7353 185.944Z" fill="#2092C3"/>
            <path d="M111.668 291.176L85.1916 325.992L23.7354 185.943L111.668 291.176Z" fill="#185D83"/>
            <path d="M215.504 41.4791L161.32 97.7317L111.667 291.176L147.713 331.031L215.504 41.4791Z" fill="#5BBAD8"/>
            <path d="M147.714 331.03L85.1909 325.991L111.667 291.176L147.714 331.03Z" fill="#2092C3"/>
        </g>
        <mask id="mask1" mask-type="alpha" maskUnits="userSpaceOnUse" x="150" y="147" width="140" height="178">
            <path d="M170.799 296.314L167.725 282.31C167.486 281.224 167.525 280.095 167.838 279.028L204.347 154.479C205.439 150.753 209.488 148.762 213.106 150.173L226.039 155.218C227.777 155.895 229.148 157.275 229.815 159.017L259.944 237.641C260.452 238.968 260.52 240.422 260.138 241.79L245.769 293.269C245.006 296.002 242.587 297.945 239.754 298.1L177.628 301.505C174.387 301.682 171.495 299.484 170.799 296.314Z"
                  fill="#C4C4C4"/>
        </mask>
        <g mask="url(#mask1)">
            <path d="M229.326 220.988L202.964 139.769L159.581 284.069L219.641 262.352L229.326 220.988Z" fill="#2092C3"/>
            <path d="M271.921 244.05L229.326 220.988L202.964 139.769L235.317 139.49L271.921 244.05Z" fill="#5BBAD8"/>
            <path d="M271.922 244.05L247.908 305.621L219.642 262.352L229.326 220.988L271.922 244.05Z" fill="#5BBAD8"/>
            <path d="M162.044 310.824L159.582 284.069L219.642 262.352L247.908 305.621L162.044 310.824Z" fill="#185D83"/>
        </g>
    </g>
</svg>
