<svg width="339" height="371" viewBox="0 0 339 371" fill="none" xmlns="http://www.w3.org/2000/svg">
    <g opacity="0.5">
        <mask id="mask0" mask-type="alpha" maskUnits="userSpaceOnUse" x="3" y="44" width="253" height="326">
            <path d="M248.254 294.954L110.566 61.4364C107.789 56.7272 100.824 57.222 98.7413 62.2765L57.6755 161.925C57.1327 163.242 57.0292 164.699 57.3804 166.079L89.0027 290.382C89.5944 292.708 91.3982 294.532 93.7173 295.148L214.468 327.265C216.572 327.825 218.816 327.314 220.471 325.9L246.853 303.349C249.295 301.261 249.886 297.721 248.254 294.954Z"
                  fill="#C4C4C4"/>
        </mask>
        <g mask="url(#mask0)">
            <path d="M106.478 128.037L103.81 49.9781L37.4837 179.412L106.478 128.037Z" fill="#5BBAD8"/>
            <path d="M74.0357 288.22L210.797 298.342L106.478 128.037L37.4836 179.413L74.0357 288.22Z" fill="#2092C3"/>
            <path d="M210.797 298.342L217.363 341.585L74.0361 288.22L210.797 298.342Z" fill="#185D83"/>
            <path d="M103.81 49.9784L106.478 128.037L210.797 298.342L264.502 300.205L103.81 49.9784Z" fill="#5BBAD8"/>
            <path d="M264.501 300.205L217.362 341.586L210.796 298.342L264.501 300.205Z" fill="#2092C3"/>
        </g>
        <mask id="mask1" mask-type="alpha" maskUnits="userSpaceOnUse" x="174" y="93" width="146" height="178">
            <path d="M255.647 259.464L243.453 251.924C242.508 251.339 241.724 250.525 241.176 249.558L177.171 136.648C175.256 133.27 176.645 128.977 180.176 127.362L192.801 121.589C194.497 120.813 196.442 120.788 198.157 121.522L275.578 154.622C276.884 155.18 277.975 156.144 278.692 157.37L305.648 203.521C307.079 205.971 306.79 209.06 304.929 211.202L264.128 258.175C261.999 260.626 258.408 261.172 255.647 259.464Z"
                  fill="#C4C4C4"/>
        </mask>
        <g mask="url(#mask1)">
            <path d="M242.308 165.011L165.646 127.401L239.047 258.995L265.264 200.758L242.308 165.011Z" fill="#2092C3"/>
            <path d="M288.516 150.484L242.307 165.011L165.646 127.401L187.967 103.98L288.516 150.484Z" fill="#5BBAD8"/>
            <path d="M288.516 150.483L316.004 210.584L265.264 200.758L242.308 165.011L288.516 150.483Z" fill="#5BBAD8"/>
            <path d="M259.97 275.852L239.047 258.995L265.264 200.758L316.004 210.584L259.97 275.852Z" fill="#185D83"/>
        </g>
    </g>
</svg>
