<svg width="36" height="47" viewBox="0 0 36 47" fill="none" xmlns="http://www.w3.org/2000/svg">
    <mask id="mask0" mask-type="alpha" maskUnits="userSpaceOnUse" x="0" y="0" width="23" height="47">
        <path d="M22.0669 43.4731L17.6425 0.999155C17.5998 0.588516 17.1059 0.403728 16.8041 0.68543L3.93458 12.697C3.77727 12.8438 3.67152 13.0374 3.63303 13.2491L0.105019 32.6532C0.0401804 33.0098 0.173387 33.3736 0.453182 33.604L15.2869 45.82C15.5407 46.029 15.8811 46.0999 16.1973 46.0096L21.347 44.5382C21.8136 44.4049 22.1172 43.9558 22.0669 43.4731Z"
              fill="#C4C4C4"/>
    </mask>
    <g mask="url(#mask0)">
        <path d="M12.9231 11.0769L17.5385 0L0 13.8462L12.9231 11.0769Z" fill="#5BBAD8"/>
        <path d="M-1.8457 31.3848L16.6158 41.5387L12.9235 11.0771L0.00045073 13.8464L-1.8457 31.3848Z" fill="#2092C3"/>
        <path d="M16.6158 41.5386L14.7697 48.0002L-1.8457 31.3848L16.6158 41.5386Z" fill="#185D83"/>
        <path d="M17.5382 0L12.9229 11.0769L16.6152 41.5385L23.9998 45.2308L17.5382 0Z" fill="#5BBAD8"/>
        <path d="M24.0003 45.2309L14.7695 48.0001L16.6157 41.5386L24.0003 45.2309Z" fill="#2092C3"/>
    </g>
    <mask id="mask1" mask-type="alpha" maskUnits="userSpaceOnUse" x="22" y="15" width="14" height="25">
        <path d="M25.3749 38.9848L24.1425 37.1362C24.0493 36.9964 23.9928 36.8354 23.9783 36.6681L22.2488 16.779C22.198 16.1947 22.6586 15.6924 23.245 15.6924H25.4042C25.686 15.6924 25.9547 15.8112 26.1442 16.0197L34.8551 25.6018C34.9995 25.7605 35.0889 25.9615 35.1102 26.175L35.9291 34.3637C35.9718 34.7901 35.738 35.1963 35.3479 35.3736L26.6208 39.3405C26.1744 39.5434 25.6469 39.3928 25.3749 38.9848Z"
              fill="#C4C4C4"/>
    </mask>
    <g mask="url(#mask1)">
        <path d="M29.5382 24.9229L21.2305 14.769L23.0766 37.846L30.4612 31.3844L29.5382 24.9229Z" fill="#2092C3"/>
        <path d="M36.9228 25.8459L29.5382 24.9229L21.2305 14.769L25.8459 12.9229L36.9228 25.8459Z" fill="#5BBAD8"/>
        <path d="M36.9227 25.8459V35.9998L30.4612 31.3844L29.5381 24.9229L36.9227 25.8459Z" fill="#5BBAD8"/>
        <path d="M24.9233 41.5386L23.0771 37.8463L30.4618 31.3848L36.9233 36.0001L24.9233 41.5386Z" fill="#185D83"/>
    </g>
</svg>
