<svg width="23" height="26" viewBox="0 0 23 26" fill="none" xmlns="http://www.w3.org/2000/svg">
    <path fill-rule="evenodd" clip-rule="evenodd"
          d="M14.5721 19.0793C13.2173 19.7577 11.6881 20.1395 10.0697 20.1395C4.50837 20.1395 0 15.6311 0 10.0697C0 4.50837 4.50837 0 10.0697 0C15.6311 0 20.1395 4.50837 20.1395 10.0697C20.1395 12.9705 18.913 15.5847 16.9503 17.4222L22.0402 23.105C22.5703 23.6968 22.5202 24.6063 21.9284 25.1363C21.3366 25.6664 20.4272 25.6163 19.8971 25.0245L14.5721 19.0793ZM17.2624 10.0697C17.2624 14.0421 14.0421 17.2624 10.0697 17.2624C6.09733 17.2624 2.87707 14.0421 2.87707 10.0697C2.87707 6.09733 6.09733 2.87707 10.0697 2.87707C14.0421 2.87707 17.2624 6.09733 17.2624 10.0697Z"
          fill="white"/>
</svg>
