<svg width="489" height="545" viewBox="0 0 489 545" fill="none" xmlns="http://www.w3.org/2000/svg">
    <g opacity="0.5">
        <mask id="mask0" mask-type="alpha" maskUnits="userSpaceOnUse" x="0" y="7" width="361" height="488">
            <path d="M208.407 473.654L317.997 74.7107C319.445 69.4392 314.241 64.7833 309.163 66.8063L152.697 129.129C151.373 129.656 150.255 130.596 149.508 131.809L47.6368 297.321C46.3789 299.365 46.3254 301.929 47.4969 304.024L140.268 469.879C141.331 471.779 143.26 473.035 145.428 473.239L201.405 478.492C204.604 478.793 207.556 476.753 208.407 473.654Z"
                  fill="#C4C4C4"/>
        </mask>
        <g mask="url(#mask0)">
            <path d="M240.681 145.809L321.52 61.8841L113.998 125.263L240.681 145.809Z" fill="#5BBAD8"/>
            <path d="M35.4131 277.416L166.603 434.417L240.682 145.81L113.999 125.264L35.4131 277.416Z" fill="#2092C3"/>
            <path d="M166.602 434.417L127.101 486.359L35.4121 277.416L166.602 434.417Z" fill="#185D83"/>
            <path d="M321.52 61.8844L240.681 145.81L166.602 434.417L220.38 493.877L321.52 61.8844Z" fill="#5BBAD8"/>
            <path d="M220.381 493.876L127.101 486.358L166.602 434.416L220.381 493.876Z" fill="#2092C3"/>
        </g>
        <mask id="mask1" mask-type="alpha" maskUnits="userSpaceOnUse" x="224" y="220" width="209" height="265">
            <path d="M255.417 444.786L250.057 420.374C249.819 419.288 249.858 418.159 250.171 417.092L305.873 227.064C306.965 223.338 311.015 221.347 314.632 222.758L338.579 232.098C340.317 232.776 341.688 234.156 342.356 235.897L388.206 355.55C388.715 356.877 388.783 358.331 388.401 359.699L366.045 439.788C365.282 442.52 362.863 444.463 360.031 444.618L262.246 449.977C259.005 450.155 256.113 447.957 255.417 444.786Z"
                  fill="#C4C4C4"/>
        </mask>
        <g mask="url(#mask1)">
            <path d="M342.141 329.7L302.811 208.526L238.086 423.812L327.692 391.413L342.141 329.7Z" fill="#2092C3"/>
            <path d="M405.69 364.107L342.14 329.7L302.81 208.526L351.079 208.11L405.69 364.107Z" fill="#5BBAD8"/>
            <path d="M405.691 364.107L369.863 455.967L327.692 391.413L342.141 329.7L405.691 364.107Z" fill="#5BBAD8"/>
            <path d="M241.761 463.73L238.087 423.813L327.694 391.413L369.865 455.967L241.761 463.73Z" fill="#185D83"/>
        </g>
    </g>
</svg>
